<svg xmlns="http://www.w3.org/2000/svg" viewBox="0 0 151 50"><defs><style>.c{fill:#fff;}</style></defs><path class="c" d="M16.32,15.7c-1.8-.13-2.7.58-2.7,2.16V18h2.7v3.14h-2.7v9.55H10.35V21.13H8.52V18h1.83v-.13a5.31,5.31,0,0,1,1.5-4.09,5.81,5.81,0,0,1,4.47-1.22Z"/><path class="c" d="M21.09,20.17a3.44,3.44,0,0,1,1.51-1.83A4.68,4.68,0,0,1,25,17.73v3.66a3.83,3.83,0,0,0-2.68.61,2.89,2.89,0,0,0-1.18,2.61v6.07H17.81V18h3.28Z"/><path class="c" d="M37.19,29.1a6.71,6.71,0,0,1-11.48-4.77,6.75,6.75,0,0,1,11.48-4.76,6.48,6.48,0,0,1,2,4.76A6.49,6.49,0,0,1,37.19,29.1ZM30,26.85a3.55,3.55,0,0,0,4.92,0,3.69,3.69,0,0,0,0-5,3.55,3.55,0,0,0-4.92,0,3.75,3.75,0,0,0,0,5Z"/><path class="c" d="M55.5,17.63A4.51,4.51,0,0,1,59,19.05a5.42,5.42,0,0,1,1.31,3.81v7.82H57V23.09a2.64,2.64,0,0,0-.56-1.78,2,2,0,0,0-1.57-.63,2.14,2.14,0,0,0-1.74.73,3.23,3.23,0,0,0-.62,2.14v7.13H49.25V23.09a2.64,2.64,0,0,0-.56-1.78,2,2,0,0,0-1.57-.63,2.19,2.19,0,0,0-1.74.73,3.18,3.18,0,0,0-.65,2.14v7.13H41.45V18h3.28v1.34a4,4,0,0,1,3.53-1.7,3.75,3.75,0,0,1,3.45,1.83A4.31,4.31,0,0,1,55.5,17.63Z"/><polygon class="c" points="73.88 25 78.17 25 75.97 18.77 73.88 25"/><path class="c" d="M88.4,22.67a12.53,12.53,0,1,0-21.53,8.7h0l0,0q.4.41.84.78l8.15,7.67L84,32.2a11.35,11.35,0,0,0,.87-.82h0A12.5,12.5,0,0,0,88.4,22.67Zm-8.27,7.88-1-2.74H72.9L72,30.55H68.74l5.33-15.24H77.8l5.37,15.24Z"/><path class="c" d="M99.8,21.33H96.93v5.28a1.26,1.26,0,0,0,.33,1,1.49,1.49,0,0,0,1,.34,14.05,14.05,0,0,0,1.58,0v3c-2.26.25-3.84,0-4.77-.63s-1.38-1.89-1.38-3.64V21.33H91.44V18.18h2.21V15.62l3.28-1v3.55H99.8Z"/><path class="c" d="M112.54,29.29a6.71,6.71,0,0,1-11.47-4.76,6.72,6.72,0,1,1,13.43,0A6.42,6.42,0,0,1,112.54,29.29Zm-7.22-2.24a3.3,3.3,0,0,0,2.45,1,3.34,3.34,0,0,0,2.46-1,3.69,3.69,0,0,0,0-5,3.34,3.34,0,0,0-2.46-1,3.3,3.3,0,0,0-2.45,1,3.72,3.72,0,0,0,0,5Z"/><path class="c" d="M132,21.08a1.79,1.79,0,0,0,0-2.43,1.58,1.58,0,0,0-1.19-.49h-3.05v3.4h3.05A1.6,1.6,0,0,0,132,21.08Z"/><path class="c" d="M131.32,24.28h-3.51v3.65h3.51a1.72,1.72,0,0,0,1.28-.52,1.82,1.82,0,0,0,.51-1.32,1.78,1.78,0,0,0-.51-1.29A1.68,1.68,0,0,0,131.32,24.28Z"/><path class="c" d="M142.48,22.67A12.53,12.53,0,1,0,121,31.37h0l0,0q.41.41.84.78L130,39.85l8.13-7.65c.3-.26.59-.54.87-.82h0A12.5,12.5,0,0,0,142.48,22.67Zm-7.73,6.85a4.92,4.92,0,0,1-3.43,1.26h-6.56V15.31h6.1a4.83,4.83,0,0,1,3.35,1.23,4,4,0,0,1,1.35,3.12,3.77,3.77,0,0,1-1.45,3.1,3.83,3.83,0,0,1,2,3.53A4.19,4.19,0,0,1,134.75,29.52Z"/></svg>
