<svg xmlns="http://www.w3.org/2000/svg" width="160px" height="37px" viewBox="0 0 160 37">
  <g fill="#FFF" fill-rule="evenodd">
    <path d="M10.0957968,13.7423961 L6.98492735,13.7423961 L6.98492735,25 L1.93660166,25 L1.93660166,13.7423961 L0,13.7423961 L0,11.1697364 L2.04001243,9.88340655 L2.04001243,9.62880195 C2.04001243,7.62745015 2.43399891,6.18853497 3.22197188,5.31294356 C4.0090902,4.43735214 5.27138529,4 7.01056638,4 C7.68230907,4 8.31644782,4.05234032 8.91554658,4.15968232 C9.51293606,4.26791145 10.2086085,4.45509463 11,4.72300608 L9.91546888,8.11359412 C9.29585891,7.93528219 8.68906844,7.84568266 8.0950975,7.84568266 C7.7079481,7.84568266 7.42591873,7.96810577 7.2490094,8.21472625 C7.0729547,8.46045961 6.98492735,8.85966543 6.98492735,9.41323082 L6.98492735,9.81598513 L10.0957968,9.81598513 L10.0957968,13.7423961 Z M21.3696316,9 C21.8357102,9 22.2782128,9.03444712 22.6980463,9.10420254 L23,9.15501205 L22.5203198,13.9569411 C22.082351,13.8518773 21.4748165,13.8002067 20.6986234,13.8002067 C19.5297997,13.8002067 18.6801582,14.0542542 18.1506059,14.5614881 C17.6210535,15.0695832 17.3562773,15.799001 17.3562773,16.7540475 L17.3562773,24 L12,24 L12,9.26007578 L15.9861512,9.26007578 L16.8221911,11.6145367 L17.0815266,11.6145367 C17.52947,10.8343093 18.1533262,10.2030658 18.9521886,9.72166723 C19.751051,9.24026868 20.5562609,9 21.3696316,9 Z M38,16.9656885 C38,19.4939052 37.3389324,21.4650113 36.0176753,22.8790067 C34.6955402,24.2930023 32.8449022,25 30.4666393,25 C28.1858246,25 26.3711811,24.2776523 25.0227086,22.8311513 C23.6742362,21.3846501 23,19.4297968 23,16.9656885 C23,14.4465011 23.6610676,12.489842 24.9832027,11.0930023 C26.3044598,9.69706546 28.1594873,9 30.5465293,9 C32.0231769,9 33.3268757,9.32234762 34.458504,9.96794582 C35.5901323,10.6144469 36.4636544,11.5390519 37.0781926,12.7435665 C37.6927309,13.9489842 38,15.3566591 38,16.9656885 Z M28,16.9592978 C28,18.2751873 28.1544828,19.2770883 28.4642365,19.9658952 C28.7739902,20.6555965 29.293399,21 30.0240394,21 C30.7460099,21 31.2567488,20.6555965 31.5538916,19.9658952 C31.8518227,19.2770883 32,18.2751873 32,16.9592978 C32,15.6532483 31.8494582,14.6665548 31.5483744,13.9992172 C31.2465025,13.3327742 30.7302463,13 30.0003941,13 C29.2855173,13 28.7739902,13.3309851 28.4642365,13.9938499 C28.1544828,14.6549257 28,15.6434083 28,16.9592978 Z M57.7330337,24 L57.7330337,15.9858766 C57.7330337,14.9886324 57.5921771,14.2411298 57.3095724,13.7425078 C57.0260764,13.2421632 56.5794362,12.9932828 55.9687605,12.9932828 C55.1619553,12.9932828 54.5682181,13.3274199 54.1920062,13.994833 C53.8140114,14.6639683 53.6259055,15.7085773 53.6259055,17.1312436 L53.6259055,24 L48.3464581,24 L48.3464581,15.9858766 C48.3464581,14.9886324 48.211842,14.2411298 47.9426098,13.7425078 C47.6733777,13.2421632 47.2374355,12.9932828 46.6365662,12.9932828 C45.8101482,12.9932828 45.2083876,13.3489494 44.8312841,14.0602824 C44.4541808,14.7716156 44.2651833,15.9333448 44.2651833,17.5471926 L44.2651833,24 L39,24 L39,9.26007578 L42.9725123,9.26007578 L43.6331117,11.0814674 L43.9424613,11.0814674 C44.3463096,10.4054426 44.9320233,9.88873578 45.7004941,9.53306923 C46.4680733,9.17826386 47.3408492,9 48.3197132,9 C50.5190372,9 52.0640021,9.64588357 52.9519334,10.9385119 L53.3700457,10.9385119 C53.8006389,10.3313813 54.4006166,9.85601102 55.1681959,9.51326213 C55.9357751,9.17137443 56.781806,9 57.7062888,9 C59.5115709,9 60.8452509,9.44609025 61.7064373,10.3391319 C62.5685153,11.2321736 63,12.5911126 63,14.4116431 L63,24 L57.7330337,24 Z M108.48317,19.969492 C109.184885,19.969492 110.023241,19.7993956 111,19.4609297 L111,23.1780113 C110.299167,23.474169 109.63095,23.6848468 108.996233,23.8109081 C108.360635,23.9369694 107.618368,24 106.765908,24 C105.016028,24 103.75541,23.5803713 102.98317,22.7411138 C102.210931,21.9027198 101.82393,20.6136134 101.82393,18.8737948 L101.82393,12.7822709 L100,12.7822709 L100,10.7083034 L102.317599,9.10318031 L103.661965,6 L107.070925,6 L107.070925,8.96071378 L110.774323,8.96071378 L110.774323,12.7822709 L107.070925,12.7822709 L107.070925,18.5344654 C107.070925,19.4911498 107.542555,19.969492 108.48317,19.969492 Z M127,16.9656884 C127,19.4939052 126.339772,21.4650113 125.018437,22.8790068 C123.696225,24.2930023 121.845479,25 119.467076,25 C117.186128,25 115.3705,24.2776524 114.022827,22.8311513 C112.674276,21.3846501 112,19.4297968 112,16.9656884 C112,14.4465012 112.660228,12.489842 113.982441,11.0930023 C115.303775,9.69706547 117.158911,9 119.546093,9 C121.023705,9 122.32748,9.32234764 123.459175,9.96794583 C124.59087,10.614447 125.463564,11.5390519 126.079017,12.7435666 C126.693591,13.9489842 127,15.3566592 127,16.9656884 Z M117,16.9592977 C117,18.2751872 117.193065,19.2770882 117.579196,19.9658951 C117.966312,20.6555965 118.61643,21 119.529551,21 C120.431836,21 121.069149,20.6555965 121.440504,19.9658951 C121.812845,19.2770882 122,18.2751872 122,16.9592977 C122,15.6532483 121.810875,14.6665548 121.434594,13.9992172 C121.057329,13.3327742 120.412136,13 119.5,13 C118.605595,13 117.966312,13.3309851 117.579196,13.9938499 C117.193065,14.6549255 117,15.6434082 117,16.9592977 Z M82,37 L71.3933983,26.1629509 C65.5355339,20.177814 65.5355339,10.4739897 71.3933983,4.48885272 C77.2512626,-1.49628424 86.7487373,-1.49628424 92.6066017,4.48885272 C98.4644661,10.4739897 98.4644661,20.177814 92.6066017,26.1629509 L82,37 Z M84.23847,20.7925723 L85.0614299,24 L90,24 L84.4784662,6 L78.4534267,6 L73,24 L77.9620833,24 L78.8077455,20.7925723 L84.23847,20.7925723 Z M84,17 L80,17 C80.7808437,14.083446 81.2843786,12.1285521 81.5115165,11.1362201 C81.7386544,10.1438881 81.890992,9.43121335 81.968529,9 C82.054276,9.46549391 82.232155,10.2377086 82.5021665,11.3139377 C82.7721778,12.3919711 83.0020524,13.2688317 83.1899657,13.9472259 L84,17 Z M145.000001,37 L134.393398,26.1629509 C128.535534,20.177814 128.535534,10.4739897 134.393398,4.48885272 C140.251263,-1.49628424 149.748737,-1.49628424 155.606602,4.48885272 C161.464466,10.4739897 161.464466,20.177814 155.606602,26.1629509 L145.000001,37 Z M152.295871,16.0461951 C151.825853,15.3572195 151.067445,14.8646341 150.020919,14.5696098 L150.020919,14.4456585 C150.813721,14.2413659 151.452381,13.782 151.938006,13.0668293 C152.422803,12.3534146 152.665062,11.4907317 152.665062,10.4812683 C152.665062,8.94614634 152.109135,7.8162439 150.997142,7.08907317 C149.88432,6.36336585 148.181041,6 145.887582,6 L140,6 L140,24 L146.568783,24 C148.554376,24 150.122574,23.5302439 151.272965,22.5898537 C152.424322,21.6503415 153,20.3641463 153,18.7303902 C153,17.6310732 152.765061,16.7360488 152.295871,16.0461951 Z M145.715004,21 L144,21 L144,17 L145.616952,17 C146.390875,17 146.980951,17.1691057 147.388216,17.5080914 C147.795038,17.8473868 148,18.3333333 148,18.96717 C148,20.3218738 147.237449,21 145.715004,21 Z M144,10 L145.494704,10 C147.165169,10 148,10.4695581 148,11.408266 C148,11.93526 147.79089,12.3315942 147.372508,12.598766 C146.956059,12.8668905 146.365782,13 145.602642,13 L144,13 L144,10 Z" />
  </g>
</svg>
